<svg width="16px" height="16px" viewBox="0 0 20 20" version="1.1" xmlns="http://www.w3.org/2000/svg">
    <!-- Generator: sketchtool 64 (101010) - https://sketch.com -->
    <title>EA359C09-A58E-4C1C-919F-64BA020057A5</title>
    <desc>Created with sketchtool.</desc>
    <g id="Organization" stroke="none" stroke-width="1" fill="none" fill-rule="evenodd">
        <g id="Preliminary-Shortlisting-Filtered_labels" transform="translate(-1376.000000, -1076.000000)" fill="#FFF">
            <g id="Education-Copy-2" transform="translate(366.000000, 767.000000)">
                <g id="Comment-1" transform="translate(36.000000, 301.000000)">
                    <g id="organisms/table/default">
                        <g id="Default">
                            <g id="idea">
                                <g id="moleculas/user/+position/vadim" transform="translate(5.000000, 0.000000)">
                                    <g id="Group-4">
                                        <g id="Icons" transform="translate(967.000000, 6.000000)">
                                            <g id="24/content/add/outline" transform="translate(2.000000, 2.000000)">
                                                <path d="M11,5 L9,5 L9,9 L5,9 L5,11 L9,11 L9,15 L11,15 L11,11 L15,11 L15,9 L11,9 L11,5 Z M10,0 C4.48,0 0,4.48 0,10 C0,15.52 4.48,20 10,20 C15.52,20 20,15.52 20,10 C20,4.48 15.52,0 10,0 Z M10,18 C5.59,18 2,14.41 2,10 C2,5.59 5.59,2 10,2 C14.41,2 18,5.59 18,10 C18,14.41 14.41,18 10,18 Z" id="icon"></path>
                                            </g>
                                        </g>
                                    </g>
                                </g>
                            </g>
                        </g>
                    </g>
                </g>
            </g>
        </g>
    </g>
</svg>
